<svg xmlns="http://www.w3.org/2000/svg" xmlns:xlink="http://www.w3.org/1999/xlink" viewBox="0 0 100.88 94.65"><defs><style>.cls-1{fill:url(#linear-gradient);}.cls-2{fill:url(#linear-gradient-2);}</style><linearGradient id="linear-gradient" x1="-3.19" y1="15.42" x2="26.17" y2="32.37" gradientTransform="matrix(1, 0, 0, -1, 0, 98)" gradientUnits="userSpaceOnUse"><stop offset="0" stop-color="#06c3fc"/><stop offset="1" stop-color="#08d9e6"/></linearGradient><linearGradient id="linear-gradient-2" y1="50.67" x2="100.88" y2="50.67" gradientTransform="matrix(1, 0, 0, -1, 0, 98)" gradientUnits="userSpaceOnUse"><stop offset="0" stop-color="#06c3fc"/><stop offset="0.92" stop-color="#0aedd1"/></linearGradient></defs><title>Komodo Icon</title><g id="Layer_2" data-name="Layer 2"><g id="Layer_1-2" data-name="Layer 1"><path class="cls-1" d="M0,86.11A7.64,7.64,0,0,0,7.69,93.7H42.38L0,43.3Z"/><path class="cls-2" d="M73.13,52.66,99.82,2.83H67.54A16.12,16.12,0,0,0,56.29,7.39a10.31,10.31,0,0,0-2,2.68l-15,26.49V14.41C39.57,4,31.6,0,21,0H0V28a3.66,3.66,0,0,0,.93,2.44L50,87.91a20.37,20.37,0,0,0,15.28,6.74h35.6Z"/></g></g></svg>